<svg width="723" height="574" viewBox="0 0 723 574" fill="none" xmlns="http://www.w3.org/2000/svg">
<rect y="34.447" width="539" height="380" rx="60" transform="rotate(-3.66422 0 34.447)" fill="white"/>
<path d="M270.998 212.984C271.275 217.309 271.002 221.524 270.179 225.629L258.57 283.364C257.748 287.47 255.354 289.649 251.39 289.903C245.769 290.263 242.791 287.848 242.459 282.659C242.408 281.866 242.466 281.066 242.631 280.26L254.24 222.525C254.844 219.519 255.058 216.647 254.882 213.908C254.453 207.205 251.952 202.046 247.378 198.431C242.872 194.739 237.231 193.11 230.456 193.544C220.87 194.158 212.044 198.161 203.978 205.552C195.979 212.867 191.018 221.291 189.095 230.822L177.487 288.557C176.664 292.662 174.234 294.844 170.198 295.103C164.649 295.458 161.708 293.041 161.375 287.852C161.324 287.059 161.382 286.259 161.547 285.452L191.337 136.995C192.16 132.89 194.553 130.71 198.517 130.456C204.139 130.096 207.116 132.511 207.448 137.7C207.499 138.493 204.095 155.971 197.237 190.135C207.303 182.326 218.03 178.056 229.417 177.327C240.805 176.598 250.401 179.53 258.205 186.122C266.009 192.715 270.273 201.669 270.998 212.984ZM378.385 130.336C378.616 133.939 377.443 137.09 374.866 139.788C372.36 142.482 369.306 143.944 365.702 144.175C362.531 144.378 359.761 143.506 357.393 141.559C355.025 139.612 353.739 137.052 353.536 133.881C353.31 130.349 354.481 127.162 357.049 124.32C359.617 121.478 362.703 119.942 366.307 119.711C369.55 119.503 372.322 120.411 374.623 122.435C376.924 124.459 378.178 127.092 378.385 130.336ZM377.578 273.68C377.924 279.086 375.395 281.962 369.989 282.308C360.475 282.917 352.391 280.432 345.738 274.851C339.152 269.194 335.556 261.644 334.952 252.202C334.73 248.743 334.977 245.253 335.693 241.734L346.892 186.087L325.054 187.486C319.648 187.832 316.772 185.302 316.426 179.897C316.08 174.491 318.61 171.615 324.015 171.269L356.557 169.185C361.891 168.844 364.726 171.304 365.063 176.565C365.113 177.358 365.003 178.45 364.73 179.843L351.632 244.838C351.194 247.037 351.042 249.182 351.175 251.272C351.489 256.173 353.288 259.966 356.572 262.65C359.851 265.263 363.977 266.41 368.951 266.091C374.356 265.745 377.232 268.275 377.578 273.68Z" fill="black"/>
<path d="M383.551 390.663L474.893 381.762L510.393 445.761L383.551 390.663Z" fill="white"/>
</svg>
