<svg width="24" height="24" viewBox="0 0 24 24" fill="none" xmlns="http://www.w3.org/2000/svg">
<path d="M4.6084 18C4.12806 17.0078 3.86 15.9023 3.86 14.7368C3.86 14.1327 3.93202 13.5448 4.0683 12.9803C2.29588 12.4892 1 10.9245 1 9.07018C1 6.82227 2.90429 5 5.25333 5C7 5 8.50076 6.0075 9.1556 7.44835C10.0357 7.13573 10.9878 6.96491 11.9817 6.96491C12.9874 6.96491 13.9504 7.13984 14.8393 7.45963C15.4914 6.01277 16.9954 5 18.7467 5C21.0957 5 23 6.82227 23 9.07018C23 10.9365 21.6873 12.5095 19.8973 12.9897C20.0321 13.5513 20.1033 14.1361 20.1033 14.7368C20.1033 15.9023 19.8353 17.0078 19.3549 18" stroke="#5D7B6F" stroke-width="2" stroke-linecap="round" stroke-linejoin="round"/>
<path d="M21 9C21 10.6569 19.6569 12 18 12" stroke="#FF9AA0" stroke-width="2" stroke-linecap="round"/>
<path d="M7.29834 14.6141C7.29834 14.6141 7.57131 13.1404 9.08781 13.1404C10.6043 13.1404 10.8773 14.6141 10.8773 14.6141" stroke="#5D7B6F" stroke-width="2" stroke-linecap="round"/>
<path d="M13.1228 14.6141C13.1228 14.6141 13.3958 13.1404 14.9123 13.1404C16.4288 13.1404 16.7018 14.6141 16.7018 14.6141" stroke="#5D7B6F" stroke-width="2" stroke-linecap="round"/>
</svg>
