<svg width="24" height="24" viewBox="0 0 24 24" fill="none" xmlns="http://www.w3.org/2000/svg">
<path fill-rule="evenodd" clip-rule="evenodd" d="M3 4.51899C3 3.68007 3.66328 3 4.48148 3H13.1481C13.9663 3 14.6296 3.68007 14.6296 4.51899V9.10281C14.8125 9.08504 14.9978 9.07595 15.1852 9.07595C18.3966 9.07595 21 11.7452 21 15.038C21 18.3307 18.3966 21 15.1852 21C11.9738 21 9.37037 18.3307 9.37037 15.038C9.37037 14.9999 9.37072 14.9619 9.37141 14.9241H4.48148C3.66328 14.9241 3 14.244 3 13.4051V4.51899ZM13.1642 14.9155C13.1794 14.9155 13.1945 14.9153 13.2095 14.9148C13.4354 14.9078 13.6485 14.8491 13.838 14.7497C14.3175 14.4982 14.6457 13.9866 14.6457 13.3965V9.10797C14.6403 9.10846 14.635 9.10895 14.6296 9.10945C14.0126 9.16723 13.4235 9.32391 12.8775 9.56389C12.8773 9.56398 12.8771 9.56407 12.8769 9.56416C10.8411 10.4592 9.40451 12.5125 9.35559 14.9155H13.1642Z" stroke="#5D7B6F" stroke-width="2"/>
</svg>
